HIERARCHY
ROOT Hips
{
	OFFSET 0.000000 83.214638 0.000000
	CHANNELS 6 Xposition Yposition Zposition Xrotation Yrotation Zrotation
	JOINT Pelvis
	{
		OFFSET 0.000000 0.000000 0.000000
		CHANNELS 3 Xrotation Yrotation Zrotation
		JOINT LeftUpLeg
		{
			OFFSET 8.479700 -4.795502 -0.379100
			CHANNELS 3 Xrotation Yrotation Zrotation
			JOINT LeftLeg
			{
				OFFSET 0.024144 -32.555107 0.112900
				CHANNELS 3 Xrotation Yrotation Zrotation
				JOINT LeftFoot
				{
					OFFSET -0.024144 -32.638630 -3.012600
					CHANNELS 3 Xrotation Yrotation Zrotation
					JOINT LeftToeBase
					{
						OFFSET 0.970200 -13.225400 11.864200
						CHANNELS 3 Xrotation Yrotation Zrotation
						End Site
						{
							OFFSET 0.000000 12.319262 0.000000
						}
					}
					JOINT LFootTongue
					{
						OFFSET 1.142400 -1.059800 6.665200
						CHANNELS 3 Xrotation Yrotation Zrotation
						End Site
						{
							OFFSET 0.000000 12.319262 0.000000
						}
					}
				}
				JOINT LeftPantLeg
				{
					OFFSET 0.918482 -16.533964 -2.284700
					CHANNELS 3 Xrotation Yrotation Zrotation
					End Site
					{
						OFFSET 0.350399 24.744368 0.000000
					}
				}
			}
		}
		JOINT RightUpLeg
		{
			OFFSET -8.479700 -4.795502 -0.379100
			CHANNELS 3 Xrotation Yrotation Zrotation
			JOINT RightLeg
			{
				OFFSET -0.023144 -32.555092 0.112900
				CHANNELS 3 Xrotation Yrotation Zrotation
				JOINT RightFoot
				{
					OFFSET 0.023144 -32.638641 -3.012700
					CHANNELS 3 Xrotation Yrotation Zrotation
					JOINT RightToeBase
					{
						OFFSET -0.970200 -13.225400 11.864200
						CHANNELS 3 Xrotation Yrotation Zrotation
						End Site
						{
							OFFSET 0.000000 12.319244 0.000000
						}
					}
					JOINT RFootTongue
					{
						OFFSET -1.142200 -1.059800 6.665200
						CHANNELS 3 Xrotation Yrotation Zrotation
						End Site
						{
							OFFSET 0.000000 12.319243 0.000000
						}
					}
				}
				JOINT RightPantLeg
				{
					OFFSET -0.919482 -16.533978 -2.284800
					CHANNELS 3 Xrotation Yrotation Zrotation
					End Site
					{
						OFFSET -0.350400 24.744419 0.000000
					}
				}
			}
		}
	}
	JOINT Spine
	{
		OFFSET 0.000000 7.722000 1.166200
		CHANNELS 3 Xrotation Yrotation Zrotation
		JOINT Spine1
		{
			OFFSET 0.000000 12.024101 0.248800
			CHANNELS 3 Xrotation Yrotation Zrotation
			JOINT Spine2
			{
				OFFSET 0.000000 11.502998 -0.491200
				CHANNELS 3 Xrotation Yrotation Zrotation
				JOINT Neck
				{
					OFFSET 0.000000 18.430702 -3.123100
					CHANNELS 3 Xrotation Yrotation Zrotation
					JOINT Head
					{
						OFFSET 0.000000 9.051102 1.034000
						CHANNELS 3 Xrotation Yrotation Zrotation
						JOINT HairB
						{
							OFFSET 0.208400 24.786102 24.822300
							CHANNELS 3 Xrotation Yrotation Zrotation
							End Site
							{
								OFFSET 0.000000 32.263779 0.000000
							}
						}
						JOINT HairA
						{
							OFFSET -7.081100 24.428299 23.196600
							CHANNELS 3 Xrotation Yrotation Zrotation
							End Site
							{
								OFFSET 0.000000 32.263779 0.000000
							}
						}
						JOINT Hat
						{
							OFFSET 16.728800 15.048294 -15.439601
							CHANNELS 3 Xrotation Yrotation Zrotation
							End Site
							{
								OFFSET 0.000000 32.263779 0.000000
							}
						}
					}
				}
				JOINT LeftShoulder
				{
					OFFSET 6.197800 13.665199 -4.064700
					CHANNELS 3 Xrotation Yrotation Zrotation
					JOINT LeftArm
					{
						OFFSET 7.778100 -0.187103 -1.709300
						CHANNELS 3 Xrotation Yrotation Zrotation
						JOINT LeftForeArm
						{
							OFFSET 22.049376 0.000000 0.000000
							CHANNELS 3 Xrotation Yrotation Zrotation
							JOINT LeftHand
							{
								OFFSET 23.009392 0.000000 0.000000
								CHANNELS 3 Xrotation Yrotation Zrotation
								JOINT LeftHandThumb1
								{
									OFFSET 3.507191 -2.063065 3.133727
									CHANNELS 3 Xrotation Yrotation Zrotation
									JOINT LeftHandThumb2
									{
										OFFSET 3.101337 -1.790558 1.790558
										CHANNELS 3 Xrotation Yrotation Zrotation
										JOINT LeftHandThumb3
										{
											OFFSET 3.058640 -1.765907 1.765906
											CHANNELS 3 Xrotation Yrotation Zrotation
											End Site
											{
												OFFSET -0.415260 3.926476 -0.049563
											}
										}
									}
								}
								JOINT LeftHandIndex1
								{
									OFFSET 11.334419 -0.901459 3.706815
									CHANNELS 3 Xrotation Yrotation Zrotation
									JOINT LeftHandIndex2
									{
										OFFSET 3.283112 0.000000 0.000000
										CHANNELS 3 Xrotation Yrotation Zrotation
										JOINT LeftHandIndex3
										{
											OFFSET 3.323853 0.000000 0.000000
											CHANNELS 3 Xrotation Yrotation Zrotation
											End Site
											{
												OFFSET -1.135597 3.097809 0.402452
											}
										}
									}
								}
								JOINT LeftHandMiddle1
								{
									OFFSET 11.335861 0.000000 0.000000
									CHANNELS 3 Xrotation Yrotation Zrotation
									JOINT LeftHandMiddle2
									{
										OFFSET 3.410492 0.000000 0.000000
										CHANNELS 3 Xrotation Yrotation Zrotation
										JOINT LeftHandMiddle3
										{
											OFFSET 3.312172 0.000000 0.000000
											CHANNELS 3 Xrotation Yrotation Zrotation
											End Site
											{
												OFFSET -1.150200 3.080154 0.400270
											}
										}
									}
								}
								JOINT LeftHandRing1
								{
									OFFSET 11.514786 -0.013176 -3.003090
									CHANNELS 3 Xrotation Yrotation Zrotation
									JOINT LeftHandRing2
									{
										OFFSET 3.053307 0.000000 0.000000
										CHANNELS 3 Xrotation Yrotation Zrotation
										JOINT LeftHandRing3
										{
											OFFSET 3.295807 0.000000 0.000000
											CHANNELS 3 Xrotation Yrotation Zrotation
											End Site
											{
												OFFSET -1.281006 3.013344 0.375733
											}
										}
									}
								}
								JOINT LeftHandPinky1
								{
									OFFSET 10.518692 -0.960396 -5.730441
									CHANNELS 3 Xrotation Yrotation Zrotation
									JOINT LeftHandPinky2
									{
										OFFSET 2.861649 0.000000 0.000000
										CHANNELS 3 Xrotation Yrotation Zrotation
										JOINT LeftHandPinky3
										{
											OFFSET 2.863380 0.000000 0.000000
											CHANNELS 3 Xrotation Yrotation Zrotation
											End Site
											{
												OFFSET -0.843597 2.711159 0.369971
											}
										}
									}
								}
							}
							JOINT LSleeve
							{
								OFFSET 6.676277 -0.344902 -1.011730
								CHANNELS 3 Xrotation Yrotation Zrotation
								End Site
								{
									OFFSET 0.000000 14.885353 0.000000
								}
							}
						}
					}
				}
				JOINT RightShoulder
				{
					OFFSET -6.197800 13.665199 -4.064700
					CHANNELS 3 Xrotation Yrotation Zrotation
					JOINT RightArm
					{
						OFFSET -7.778100 -0.187103 -1.709300
						CHANNELS 3 Xrotation Yrotation Zrotation
						JOINT RightForeArm
						{
							OFFSET -22.049376 0.000000 0.000000
							CHANNELS 3 Xrotation Yrotation Zrotation
							JOINT RightHand
							{
								OFFSET -23.009392 0.000000 0.000000
								CHANNELS 3 Xrotation Yrotation Zrotation
								JOINT RightHandThumb1
								{
									OFFSET -3.507191 -2.063065 3.133727
									CHANNELS 3 Xrotation Yrotation Zrotation
									JOINT RightHandThumb2
									{
										OFFSET -3.101337 -1.790558 1.790558
										CHANNELS 3 Xrotation Yrotation Zrotation
										JOINT RightHandThumb3
										{
											OFFSET -3.058640 -1.765907 1.765906
											CHANNELS 3 Xrotation Yrotation Zrotation
											End Site
											{
												OFFSET 0.415260 3.926476 -0.049563
											}
										}
									}
								}
								JOINT RightHandIndex1
								{
									OFFSET -11.334419 -0.901459 3.706815
									CHANNELS 3 Xrotation Yrotation Zrotation
									JOINT RightHandIndex2
									{
										OFFSET -3.283112 0.000000 0.000000
										CHANNELS 3 Xrotation Yrotation Zrotation
										JOINT RightHandIndex3
										{
											OFFSET -3.323853 0.000000 0.000000
											CHANNELS 3 Xrotation Yrotation Zrotation
											End Site
											{
												OFFSET 1.135597 3.097809 0.402452
											}
										}
									}
								}
								JOINT RightHandMiddle1
								{
									OFFSET -11.335861 0.000000 0.000000
									CHANNELS 3 Xrotation Yrotation Zrotation
									JOINT RightHandMiddle2
									{
										OFFSET -3.410492 0.000000 0.000000
										CHANNELS 3 Xrotation Yrotation Zrotation
										JOINT RightHandMiddle3
										{
											OFFSET -3.312172 0.000000 0.000000
											CHANNELS 3 Xrotation Yrotation Zrotation
											End Site
											{
												OFFSET 1.150200 3.080154 0.400270
											}
										}
									}
								}
								JOINT RightHandRing1
								{
									OFFSET -11.514786 -0.013176 -3.003090
									CHANNELS 3 Xrotation Yrotation Zrotation
									JOINT RightHandRing2
									{
										OFFSET -3.053307 0.000000 0.000000
										CHANNELS 3 Xrotation Yrotation Zrotation
										JOINT RightHandRing3
										{
											OFFSET -3.295807 0.000000 0.000000
											CHANNELS 3 Xrotation Yrotation Zrotation
											End Site
											{
												OFFSET 1.281006 3.013344 0.375733
											}
										}
									}
								}
								JOINT RightHandPinky1
								{
									OFFSET -10.518692 -0.960396 -5.730441
									CHANNELS 3 Xrotation Yrotation Zrotation
									JOINT RightHandPinky2
									{
										OFFSET -2.861649 0.000000 0.000000
										CHANNELS 3 Xrotation Yrotation Zrotation
										JOINT RightHandPinky3
										{
											OFFSET -2.863380 0.000000 0.000000
											CHANNELS 3 Xrotation Yrotation Zrotation
											End Site
											{
												OFFSET 0.843597 2.711159 0.369971
											}
										}
									}
								}
							}
							JOINT RSleeve
							{
								OFFSET -6.676277 -0.344902 -1.011730
								CHANNELS 3 Xrotation Yrotation Zrotation
								End Site
								{
									OFFSET 0.000000 14.885353 0.000000
								}
							}
						}
					}
				}
				JOINT Backpack
				{
					OFFSET 0.000000 -2.471497 36.677502
					CHANNELS 3 Xrotation Yrotation Zrotation
					End Site
					{
						OFFSET 0.000000 20.427315 0.000000
					}
				}
				JOINT Hood
				{
					OFFSET 0.000000 18.754097 -10.431000
					CHANNELS 3 Xrotation Yrotation Zrotation
					JOINT Hood1
					{
						OFFSET 0.000000 -5.011002 -7.685901
						CHANNELS 3 Xrotation Yrotation Zrotation
						End Site
						{
							OFFSET 0.000000 9.175140 0.000000
						}
					}
				}
				JOINT LHoodieString
				{
					OFFSET 5.250500 16.397697 3.089900
					CHANNELS 3 Xrotation Yrotation Zrotation
					JOINT LHoodieString1
					{
						OFFSET 0.257700 -6.364304 3.694600
						CHANNELS 3 Xrotation Yrotation Zrotation
						JOINT LHoodieString2
						{
							OFFSET 0.000000 -9.643799 2.679100
							CHANNELS 3 Xrotation Yrotation Zrotation
							End Site
							{
								OFFSET 0.000000 10.009018 0.000000
							}
						}
					}
				}
				JOINT RHoodieString
				{
					OFFSET -5.250500 16.397697 3.089900
					CHANNELS 3 Xrotation Yrotation Zrotation
					JOINT RHoodieString1
					{
						OFFSET -0.257700 -6.364304 3.694600
						CHANNELS 3 Xrotation Yrotation Zrotation
						JOINT RHoodieString2
						{
							OFFSET 0.000000 -9.643799 2.679100
							CHANNELS 3 Xrotation Yrotation Zrotation
							End Site
							{
								OFFSET 0.000000 10.009018 0.000000
							}
						}
					}
				}
			}
			JOINT LBackpack_Strap
			{
				OFFSET 15.223200 -7.719803 -6.610900
				CHANNELS 3 Xrotation Yrotation Zrotation
				End Site
				{
					OFFSET 0.000000 16.040596 0.000000
				}
			}
			JOINT RBackpack_Strap
			{
				OFFSET -15.223000 -7.719803 -6.610900
				CHANNELS 3 Xrotation Yrotation Zrotation
				End Site
				{
					OFFSET 0.000000 16.040596 0.000000
				}
			}
		}
	}
	JOINT BoyFacialAnim_Joint
	{
		OFFSET 1.000000 -82.208099 -1.550900
		CHANNELS 3 Xrotation Yrotation Zrotation
		End Site
		{
			OFFSET 0.000000 30.012791 0.000000
		}
	}
}
MOTION
Frames: 4
Frame Time: 0.016667
-0.012993 79.273392 -0.205485 1.512593 -26.749727 0.599320 -0.000000 0.000001 -0.000000 -29.670041 25.530779 14.529860 26.710655 8.392812 10.424201 -1.093743 0.638917 -11.856535 0.000000 -0.000000 -0.000000 0.000000 -0.000000 -0.000000 -0.000000 0.000000 0.000001 -20.310718 -16.530869 -9.223031 31.812347 -1.843195 -7.105328 -13.339566 -1.896107 10.880636 0.000000 -0.000000 -0.000000 0.000000 -0.000000 -0.000000 0.000000 -0.000001 0.000000 4.045267 -1.419856 0.807402 1.509779 -0.573493 0.095187 1.512356 -0.565976 0.098705 -2.627946 4.190005 2.862240 16.708355 24.088491 -12.351904 -0.000000 0.000000 -0.000000 -0.000000 0.000000 -0.000000 -0.000000 0.000000 -0.000000 -0.278003 3.012244 5.812622 -51.694167 -1.278264 -53.239084 0.001285 -85.822037 0.001318 -13.673772 -20.175392 -8.459500 27.590962 19.106281 -21.055327 27.859589 42.152991 14.703674 0.000001 0.000000 0.000001 6.438768 6.867040 -86.304624 7.312878 6.867708 -93.605304 -0.000001 0.000000 -0.000002 6.436816 6.866915 -86.288409 7.314813 6.867579 -93.621533 -0.000000 -0.000003 0.000001 6.438745 6.867020 -86.304597 7.312869 6.867711 -93.605311 -0.000001 0.000002 -0.000000 10.514962 7.128898 -86.291025 7.312040 2.781452 -93.595305 -0.000000 0.000001 -0.000002 0.000001 0.000002 0.000001 -1.118783 -11.889975 10.257415 -58.214693 66.009366 74.019928 -0.000044 83.646786 0.000042 -16.117233 15.251128 -32.686796 35.509597 -4.573186 10.809942 66.380805 -29.907985 29.548717 -0.000000 0.000001 -0.000000 5.945880 -6.875926 81.685333 8.620191 -6.745033 103.956579 -0.000001 -0.000002 0.000001 5.945863 -6.875925 81.685354 8.620187 -6.745037 103.956579 0.000003 -0.000002 -0.000002 5.945871 -6.875904 81.685354 8.620181 -6.745027 103.956579 -0.000001 -0.000003 -0.000000 5.945864 -6.875895 81.685347 8.620209 -6.745044 103.956572 -0.000000 0.000003 -0.000003 0.000002 -0.000000 -0.000003 0.000000 0.000001 -0.000000 0.000000 0.000001 -0.000000 0.000000 0.000001 -0.000000 0.000000 0.000001 -0.000000 0.000000 0.000001 -0.000000 -0.000000 -0.000000 0.000000 0.000000 0.000001 -0.000000 0.000000 0.000001 -0.000000 -0.000000 -0.000000 0.000000 -0.000000 -0.000000 0.000000 -0.000000 -0.000000 0.000000 -0.000000 0.000001 -0.000000 
-0.016188 79.272072 -0.200533 1.528475 -26.749154 0.618665 -0.000000 -0.000000 0.000000 -29.681355 25.556203 14.525331 26.712691 8.371908 10.424067 -1.099046 0.639968 -11.854072 0.000000 -0.000000 0.000000 0.000000 -0.000000 -0.000000 0.000000 -0.000000 0.000000 -20.344007 -16.608749 -9.234873 31.822869 -1.768248 -7.162478 -13.350225 -1.898347 10.888116 -0.000000 0.000000 0.000000 -0.000000 0.000000 0.000000 -0.000001 -0.000001 0.000001 4.032306 -1.425968 0.810954 1.504778 -0.576866 0.097090 1.507367 -0.569390 0.100619 -2.626393 4.193302 2.853711 16.723307 24.085798 -12.361638 -0.000001 0.000000 0.000000 -0.000001 0.000000 0.000000 -0.000001 0.000000 0.000000 -0.279651 3.035678 5.768245 -51.680910 -1.342415 -53.222890 0.000022 -85.775893 -0.000000 -13.811723 -20.364110 -8.525125 27.590962 19.106285 -21.055325 27.859583 42.152984 14.703673 -0.000000 -0.000001 0.000000 6.438765 6.867043 -86.304624 7.312879 6.867706 -93.605297 -0.000000 -0.000001 -0.000004 6.436813 6.866918 -86.288409 7.314812 6.867581 -93.621533 0.000001 -0.000001 -0.000002 6.438744 6.867018 -86.304597 7.312868 6.867711 -93.605304 0.000000 0.000000 0.000001 10.514961 7.128898 -86.291025 7.312038 2.781449 -93.595305 0.000001 0.000001 0.000000 0.000002 0.000001 -0.000000 -1.120087 -11.901485 10.263996 -58.262203 66.059500 74.030078 -0.000124 83.625537 0.000177 -16.127176 15.168996 -32.708820 35.509604 -4.573186 10.809941 66.380812 -29.907985 29.548720 -0.000001 0.000004 -0.000000 5.945887 -6.875926 81.685340 8.620196 -6.745032 103.956586 -0.000002 -0.000000 0.000003 5.945867 -6.875919 81.685354 8.620185 -6.745037 103.956572 0.000002 0.000004 -0.000003 5.945872 -6.875903 81.685354 8.620181 -6.745030 103.956579 0.000001 -0.000001 -0.000001 5.945868 -6.875898 81.685347 8.620211 -6.745041 103.956572 -0.000001 -0.000000 0.000002 -0.000001 -0.000001 -0.000002 0.000000 -0.000000 -0.000000 0.000000 -0.000000 -0.000000 0.000000 -0.000000 -0.000000 0.000000 -0.000000 -0.000000 0.000000 -0.000000 -0.000001 0.000000 -0.000000 -0.000000 0.000000 -0.000000 -0.000000 0.000000 -0.000000 -0.000001 0.000000 -0.000000 -0.000000 -0.000001 -0.000003 -0.000000 -0.000001 -0.000003 -0.000000 -0.000000 -0.000000 0.000000 
-0.019087 79.270256 -0.195293 1.545167 -26.745214 0.634666 -0.000000 -0.000001 -0.000000 -29.701955 25.587017 14.528562 26.722260 8.339458 10.423639 -1.108082 0.641179 -11.848992 -0.000000 0.000001 -0.000000 -0.000000 0.000001 -0.000000 -0.000000 0.000000 -0.000001 -20.377067 -16.692371 -9.243829 31.833060 -1.695683 -7.220980 -13.360827 -1.900614 10.896678 0.000000 -0.000002 0.000000 0.000000 -0.000002 0.000000 -0.000000 0.000000 -0.000001 4.019834 -1.432666 0.814572 1.499958 -0.580344 0.099077 1.502558 -0.572894 0.102616 -2.623186 4.196177 2.846583 16.734044 24.083204 -12.365513 -0.000000 -0.000000 0.000000 -0.000000 -0.000000 0.000000 -0.000000 -0.000000 0.000000 -0.280746 3.056237 5.722897 -51.672809 -1.406299 -53.202840 -0.000304 -85.730841 -0.000343 -13.921663 -20.527420 -8.571535 27.590959 19.106281 -21.055330 27.859578 42.152991 14.703673 0.000002 0.000000 -0.000003 6.438768 6.867042 -86.304631 7.312877 6.867708 -93.605297 -0.000001 0.000000 -0.000005 6.436816 6.866918 -86.288416 7.314816 6.867581 -93.621533 0.000001 -0.000002 -0.000002 6.438747 6.867024 -86.304597 7.312867 6.867709 -93.605304 -0.000001 0.000002 -0.000000 10.514963 7.128901 -86.291032 7.312036 2.781452 -93.595305 -0.000000 0.000000 -0.000004 0.000003 -0.000000 -0.000000 -1.121293 -11.910752 10.267823 -58.301060 66.100535 74.036136 0.000573 83.610845 -0.000614 -16.139126 15.077345 -32.725543 35.509597 -4.573187 10.809941 66.380805 -29.907981 29.548723 -0.000000 -0.000003 0.000000 5.945881 -6.875926 81.685333 8.620196 -6.745030 103.956579 0.000000 -0.000000 0.000004 5.945859 -6.875924 81.685354 8.620189 -6.745035 103.956579 0.000001 -0.000002 -0.000006 5.945868 -6.875904 81.685354 8.620183 -6.745032 103.956579 -0.000002 -0.000003 -0.000002 5.945856 -6.875896 81.685347 8.620206 -6.745044 103.956572 -0.000002 -0.000003 -0.000004 -0.000001 -0.000001 -0.000000 -0.000000 -0.000000 0.000000 -0.000000 -0.000000 0.000000 -0.000000 -0.000000 0.000000 -0.000000 -0.000000 0.000000 -0.000000 -0.000000 -0.000000 -0.000001 -0.000000 -0.000000 -0.000000 -0.000000 0.000000 -0.000000 -0.000000 -0.000000 -0.000001 -0.000000 -0.000000 -0.000000 -0.000003 0.000000 -0.000000 -0.000003 0.000000 -0.000000 -0.000001 -0.000000 
-0.021920 79.267982 -0.189845 1.562244 -26.738886 0.647410 -0.000000 0.000001 -0.000000 -29.731188 25.624477 14.539943 26.738657 8.295083 10.423030 -1.120480 0.642614 -11.841513 -0.000000 0.000001 -0.000000 -0.000000 0.000001 0.000000 -0.000000 -0.000000 0.000000 -20.409725 -16.781594 -9.249732 31.842827 -1.625471 -7.281146 -13.371146 -1.902981 10.906153 0.000000 -0.000000 0.000000 0.000000 -0.000000 0.000000 -0.000000 -0.000003 0.000000 4.007884 -1.440171 0.818453 1.495333 -0.584008 0.101199 1.497949 -0.576593 0.104755 -2.617658 4.198875 2.840608 16.741159 24.081475 -12.364068 -0.000002 0.000000 0.000000 -0.000002 0.000000 0.000000 -0.000002 0.000000 0.000000 -0.281259 3.073343 5.677565 -51.670866 -1.468557 -53.178743 0.000761 -85.685331 0.000735 -13.994027 -20.655532 -8.594069 27.590962 19.106281 -21.055325 27.859589 42.152984 14.703676 0.000002 -0.000000 -0.000002 6.438767 6.867042 -86.304624 7.312872 6.867707 -93.605304 -0.000001 0.000002 -0.000002 6.436819 6.866915 -86.288403 7.314817 6.867583 -93.621533 0.000000 -0.000002 -0.000000 6.438747 6.867018 -86.304597 7.312867 6.867709 -93.605311 -0.000001 0.000001 -0.000000 10.514960 7.128898 -86.291025 7.312040 2.781452 -93.595298 0.000000 0.000001 -0.000002 0.000000 0.000002 0.000002 -1.122339 -11.917107 10.268321 -58.331988 66.132733 74.039906 0.000149 83.601044 -0.000192 -16.154557 14.982350 -32.734764 35.509604 -4.573188 10.809941 66.380812 -29.907981 29.548723 0.000002 0.000003 0.000002 5.945881 -6.875925 81.685333 8.620194 -6.745033 103.956579 0.000002 0.000001 0.000005 5.945865 -6.875919 81.685354 8.620190 -6.745035 103.956572 0.000005 -0.000001 -0.000002 5.945873 -6.875906 81.685354 8.620186 -6.745032 103.956579 -0.000000 -0.000005 -0.000000 5.945860 -6.875894 81.685347 8.620202 -6.745045 103.956579 -0.000002 0.000001 -0.000001 0.000001 -0.000000 -0.000000 0.000000 -0.000003 0.000000 0.000000 -0.000003 0.000000 0.000000 -0.000003 0.000000 0.000000 -0.000003 0.000000 0.000000 -0.000003 -0.000000 0.000000 -0.000002 -0.000000 0.000000 -0.000003 0.000000 0.000000 -0.000003 -0.000000 0.000000 -0.000002 -0.000000 -0.000000 -0.000000 0.000000 -0.000000 -0.000000 0.000000 -0.000000 0.000001 -0.000000 
